<svg width="76" height="76" viewBox="0 0 76 76" fill="none" xmlns="http://www.w3.org/2000/svg">
<path fill-rule="evenodd" clip-rule="evenodd" d="M37.8236 0.00161217C29.1121 0.298251 22.5882 3.4538 18.7133 9.19956C14.8384 14.9453 13.535 22.7761 13.535 32.5093C10.3021 32.5093 6.93876 33.3584 4.30054 35.609C1.66161 37.8596 0 41.4966 0 46.0444C0 50.5928 1.66161 54.2241 4.30054 56.4754C6.93876 58.726 10.3021 59.5744 13.535 59.5744H16.2542C17.7317 59.5693 18.9462 58.3549 18.9512 56.8774V32.5093C18.9512 23.2863 20.3291 16.4908 23.2095 12.2197C26.0741 7.97216 30.4054 5.73949 37.9239 5.46005C45.4272 5.74379 49.7565 7.97718 52.6175 12.2197C55.4979 16.4908 56.8758 23.2863 56.8758 32.5093V56.5177C56.8586 56.6144 56.2632 60.0014 53.9345 63.4937C51.5728 67.0362 47.8433 70.4124 40.6216 70.4124C39.1584 70.4447 37.9726 71.657 37.9726 73.1201C37.9726 74.584 39.1584 75.7963 40.6216 75.8286C49.6483 75.8286 55.4026 71.0752 58.4571 66.4931C60.209 63.8649 61.1455 61.3413 61.6729 59.5744H62.2919C65.5249 59.5744 68.8882 58.726 71.5264 56.4754C74.1654 54.2241 75.827 50.5928 75.827 46.0444C75.827 41.4966 74.1654 37.8596 71.5264 35.609C68.8882 33.3584 65.5249 32.5093 62.2919 32.5093C62.2919 22.7761 60.9886 14.9453 57.1137 9.19956C53.2387 3.4538 46.7148 0.298251 38.0034 0.00161217C37.9432 -0.000537389 37.8837 -0.000537389 37.8236 0.00161217ZM13.535 37.9047V54.1582C11.2744 54.1582 9.22159 53.5363 7.81721 52.339C6.41355 51.1409 5.42118 49.369 5.42118 46.0444C5.42118 42.7204 6.41355 40.9212 7.81721 39.7239C9.22159 38.5266 11.2744 37.9047 13.535 37.9047ZM62.2919 37.9047C64.5526 37.9047 66.6054 38.5266 68.009 39.7239C69.4134 40.9212 70.4108 42.7204 70.4108 46.0444C70.4108 49.369 69.4134 51.1409 68.009 52.339C66.6054 53.5363 64.5526 54.1582 62.2919 54.1582V37.9047Z" fill="#F47920"/>
</svg>
