<svg width="76" height="76" viewBox="0 0 76 76" fill="none" xmlns="http://www.w3.org/2000/svg">
<path d="M58.3618 0.00105286C53.1232 0.00105286 48.8617 4.26254 48.8617 9.50117V45.1483C43.7995 48.3757 40.7188 53.9265 40.7188 60.0038C40.7188 66.6539 44.4048 72.6688 50.3383 75.7062C51.1825 76.135 52.1868 76.0998 52.9929 75.6057C53.7991 75.109 54.2904 74.235 54.2904 73.2877V61.5537L58.3618 59.9251L62.4333 61.5537V73.2877C62.4333 74.235 62.9246 75.109 63.7308 75.6057C64.5369 76.0998 65.5412 76.135 66.3854 75.7062C72.3189 72.6661 76.0049 66.6539 76.0049 60.0011C76.0049 53.9265 72.9242 48.3757 67.862 45.1456V9.50117C67.862 4.26254 63.6005 0.00105286 58.3618 0.00105286ZM48.8617 67.6799C47.1327 65.5492 46.1474 62.862 46.1474 60.0038C46.1474 55.4058 48.7016 51.2393 52.8138 49.133C53.7203 48.6688 54.2904 47.7351 54.2904 46.7172V9.50117C54.2904 7.25643 56.1171 5.4297 58.3618 5.4297C60.6066 5.4297 62.4333 7.25643 62.4333 9.50117V46.7172C62.4333 47.7351 63.0033 48.6688 63.9099 49.133C68.0221 51.2393 70.5763 55.4031 70.5763 60.0011C70.5763 62.8593 69.591 65.5465 67.862 67.6772V59.7161C67.862 58.606 67.1861 57.6098 66.1574 57.1945L59.3716 54.4802C58.7228 54.2196 58.0035 54.2196 57.3548 54.4802L50.569 57.1945C49.5376 57.6098 48.8617 58.606 48.8617 59.7161V67.6799Z" fill="#F47920"/>
<path d="M40.9157 0.000976562H35.088C32.2678 0.000976562 29.8901 2.20229 29.6757 5.01161L29.3337 9.44952C27.4716 10.0141 25.6693 10.7633 23.9457 11.6861L20.5637 8.78995C18.4221 6.95235 15.1866 7.07993 13.1943 9.06952L9.06855 13.198C7.07623 15.1903 6.95138 18.4285 8.78626 20.5701L11.6824 23.9494C10.7596 25.673 10.0104 27.4753 9.44584 29.3374L5.01064 29.6766C2.20131 29.8884 0 32.2661 0 35.0863V40.9166C0 43.7368 2.20131 46.1146 5.01335 46.329L9.44855 46.6683C10.0131 48.533 10.7623 50.3353 11.6852 52.0562L8.78626 55.441C6.95138 57.5799 7.07623 60.8153 9.07126 62.8131L13.1916 66.9361C15.1866 68.9311 18.4248 69.0533 20.5637 67.2184L23.9457 64.3222C25.6693 65.2451 27.4716 65.9943 29.3337 66.5588L29.6757 70.9967C29.8901 73.8006 32.2678 76.002 35.0853 76.002H38.0005C39.4988 76.002 40.7148 74.7887 40.7148 73.2876C40.7148 71.7866 39.4988 70.5733 38.0005 70.5733H35.0853L34.5967 64.2191C34.5044 63.0356 33.6549 62.0503 32.5013 61.7843C29.8765 61.179 27.3794 60.1449 25.0803 58.7036C24.0787 58.0711 22.7786 58.1662 21.8747 58.9452L17.0296 63.0954L12.9093 58.9696L17.0595 54.1272C17.8331 53.2261 17.9281 51.9259 17.2984 50.9216C15.8598 48.6199 14.8229 46.1227 14.2176 43.5007C13.9516 42.3444 12.9636 41.4948 11.7802 41.4052L5.42864 40.9166V35.0863L11.7802 34.5977C12.9636 34.5081 13.9516 33.6558 14.2176 32.5023C14.8229 29.8775 15.8571 27.3803 17.2984 25.0813C17.9281 24.077 17.8304 22.7768 17.0595 21.8757L12.9093 17.0333L17.0324 12.9076L21.8747 17.0578C22.7786 17.8341 24.0787 17.9291 25.0803 17.2993C27.3821 15.8607 29.8792 14.8239 32.5013 14.2186C33.6576 13.9499 34.5072 12.9646 34.5967 11.7838L35.0853 5.42962H40.913C41.027 6.92249 42.3271 8.03808 43.8281 7.92679C45.3237 7.81279 46.442 6.5072 46.3253 5.01161C46.1109 2.20229 43.7331 0.000976562 40.9157 0.000976562Z" fill="#F47920"/>
<path d="M19 38.0004C19 47.3215 25.661 55.2013 34.8383 56.7376C36.3122 57.0009 37.7182 55.9884 37.9625 54.5091C38.2095 53.0298 37.2134 51.6319 35.734 51.3849C29.1843 50.2856 24.4287 44.656 24.4287 38.0004C24.4287 28.6277 33.739 22.0915 42.5254 25.1995C43.9314 25.7016 45.4894 24.9633 45.9916 23.5491C46.491 22.135 45.7527 20.5851 44.3385 20.0856C31.9801 15.7128 19 24.928 19 38.0004Z" fill="#F47920"/>
</svg>
