<?xml version="1.0" encoding="utf-8"?>
<!-- Generator: Adobe Illustrator 30.1.0, SVG Export Plug-In . SVG Version: 9.03 Build 0)  -->
<svg version="1.1" id="katman_1" xmlns="http://www.w3.org/2000/svg" xmlns:xlink="http://www.w3.org/1999/xlink" x="0px" y="0px"
	 viewBox="0 0 1920 461.3" style="enable-background:new 0 0 1920 461.3;" xml:space="preserve">
<g>
	<defs>
		<rect id="SVGID_1_" y="0" width="1920" height="461.3"/>
	</defs>
	<clipPath id="SVGID_00000061433059229718319860000010718521420617594802_">
		<use xlink:href="#SVGID_1_"  style="overflow:visible;"/>
	</clipPath>
	<g style="clip-path:url(#SVGID_00000061433059229718319860000010718521420617594802_);">
		<g>
			<path style="fill:#FFFFFF;" d="M1670.6,165.1c-2.1,2.1-3.4,4.9-3.4,8.1c0,6.3,5.1,11.4,11.4,11.4h98.8v76.8h-38.8l-80.9-80.7
				V80.8L1738.6,0h38.8v57.6l-106.9,107.5l0,0H1670.6z"/>
			<path style="fill:#FFFFFF;" d="M1907.2,96.3c2.1-2.1,3.4-4.9,3.4-8.1c0-6.3-5.1-11.4-11.4-11.4h-98.8V0h38.8l80.9,80.7v99.9
				l-80.9,80.8h-38.8v-57.6l106.9-107.5L1907.2,96.3z"/>
			<path style="fill:#FFFFFF;" d="M794.6,381.5c0,6.3-5.1,11.4-11.4,11.4H579.6c-6.3,0-11.4-5.1-11.4-11.4v-92.6h-68.4V379
				l81.6,82.2h200L863,379V264.8h-68.4L794.6,381.5L794.6,381.5L794.6,381.5z"/>
			<path style="fill:#FFFFFF;" d="M954.1,79.8c0-6.3,5.1-11.4,11.4-11.4H1169c6.3,0,11.4,5.1,11.4,11.4v58.1h68.4V82.3L1235,68.4
				l0,0L1167.3,0h-200l-81.6,82.2v114.2h68.4V79.7L954.1,79.8z"/>
			<path style="fill:#FFFFFF;" d="M1553.3,0h-200l-81.6,82.2V379l81.6,82.3h200l81.6-82.3V82.2L1553.3,0z M1566.5,381.5
				c0,6.3-5.1,11.4-11.4,11.4h-203.5c-6.3,0-11.4-5.1-11.4-11.4V79.8c0-6.3,5.1-11.4,11.4-11.4h203.5c6.3,0,11.4,5.1,11.4,11.4
				V381.5z"/>
			<path style="fill:#FFFFFF;" d="M1167.3,196.5h-200l-81.6,82.2V379l81.6,82.3h200l81.6-82.3V278.7L1167.3,196.5L1167.3,196.5z
				 M1180.5,381.5c0,6.3-5.1,11.4-11.4,11.4H965.5c-6.3,0-11.4-5.1-11.4-11.4V276.2c0-6.3,5.1-11.4,11.4-11.4h203.6
				c6.3,0,11.4,5.1,11.4,11.4V381.5z"/>
			<path style="fill:#FFFFFF;" d="M581.4,0l-81.6,82.2v90.1h68.4V79.7c0-6.3,5.1-11.4,11.4-11.4h203.6c6.3,0,11.4,5.1,11.4,11.4
				v74.8l-76.7,76.7l48.6,48.6l14.9-14.9l0,0l81.5-81.5V82.2L781.3,0h-200H581.4z"/>
			<path style="fill:#334AFF;" d="M13,0H0v264.8h211.9v-38.3H42.7v-75.9H206v-37.9H42.7V38.3h169.2V0H13z"/>
			<path style="fill:#334AFF;" d="M459.8,0l-90.9,221.7h-3.2L274,0h-50.6l113.1,264.8H397L510,0H459.8z"/>
			<path style="fill:#FFFFFF;" d="M1905.8,261.4c-2,0-3.8-0.4-5.5-1.1s-3.2-1.7-4.5-3.1c-1.3-1.3-2.3-2.8-3.1-4.5
				c-0.7-1.7-1.1-3.6-1.1-5.5s0.4-3.8,1.1-5.5s1.7-3.2,3.1-4.5c1.3-1.3,2.8-2.3,4.5-3.1c1.7-0.7,3.6-1.1,5.5-1.1s3.8,0.4,5.5,1.1
				c1.7,0.7,3.2,1.7,4.5,3.1c1.3,1.3,2.3,2.8,3.1,4.5c0.7,1.7,1.1,3.6,1.1,5.5s-0.4,3.8-1.1,5.5s-1.7,3.2-3.1,4.5
				c-1.3,1.3-2.8,2.3-4.5,3.1C1909.6,261,1907.7,261.4,1905.8,261.4z M1905.8,258c2,0,3.8-0.5,5.4-1.4c1.6-1,2.9-2.3,3.9-3.9
				c1-1.6,1.5-3.4,1.5-5.4s-0.5-3.8-1.5-5.4c-1-1.6-2.3-2.9-3.9-3.9s-3.4-1.4-5.4-1.4s-3.8,0.5-5.4,1.4c-1.6,1-2.9,2.3-3.9,3.9
				c-1,1.6-1.5,3.4-1.5,5.4s0.5,3.8,1.5,5.4c1,1.6,2.3,2.9,3.9,3.9S1903.8,258,1905.8,258z M1900.9,253.6v-13.1h6.6
				c0.5,0,1.1,0.2,1.7,0.4c0.6,0.3,1.2,0.8,1.6,1.4c0.4,0.6,0.7,1.4,0.7,2.3s-0.2,1.8-0.7,2.4c-0.5,0.7-1,1.2-1.7,1.5
				s-1.3,0.5-1.8,0.5h-4.8v-2.1h3.9c0.4,0,0.8-0.2,1.3-0.6c0.5-0.4,0.7-1,0.7-1.8s-0.2-1.3-0.7-1.6c-0.4-0.3-0.9-0.4-1.2-0.4h-2.7
				v11h-2.9V253.6z M1908.8,247.5l3.3,6.2h-3.2l-3.2-6.2H1908.8L1908.8,247.5z"/>
		</g>
	</g>
</g>
</svg>
