<svg preserveAspectRatio="none" width="100%" height="100%" overflow="visible" style="display: block;" viewBox="0 0 76.9997 76.7403" fill="none" xmlns="http://www.w3.org/2000/svg">
<g id="Group">
<path id="Vector" d="M38.2163 76.7403C33.6741 76.7403 29.1319 76.0415 24.9391 74.2945C17.2523 71.4993 10.6137 66.2583 6.07151 59.2703C1.52931 52.2823 -0.567084 43.8967 0.131715 35.8605C0.830515 27.4749 3.97511 19.7881 9.21611 13.4989C14.4571 7.20975 21.7945 2.66755 29.8307 0.920555C37.8669 -0.826443 46.2525 -0.127644 53.9393 3.36635C55.6863 4.06515 56.3851 6.16155 55.6863 7.90855C54.9875 9.65555 52.8911 10.3543 51.1441 9.65555C44.8549 6.86035 37.8669 6.16155 31.5777 7.55915C24.5897 8.95675 18.6499 12.8001 14.4571 18.0411C9.91491 23.2821 7.46911 29.5713 7.11971 36.5593C6.77031 43.1979 8.51731 50.1859 12.0113 55.7763C15.5053 61.3667 21.0957 65.9089 27.3849 68.0053C33.6741 70.4511 40.6621 70.4511 47.3007 68.7041C53.5899 66.9571 59.5297 62.7643 63.7225 57.5233C67.9153 52.2823 70.0117 45.2943 70.0117 38.6557V35.5111C70.0117 33.4147 71.4093 32.0171 73.5057 32.0171C75.6021 32.0171 76.9997 33.4147 76.9997 35.5111V38.3063C76.9997 46.6919 74.2045 54.7281 69.3129 61.3667C64.4213 68.0053 57.4333 72.8969 49.3971 75.3427C45.5537 76.0415 42.0597 76.7403 38.2163 76.7403ZM38.2163 48.7883C37.1681 48.7883 36.4693 48.4389 35.7705 47.7401L25.2885 37.2581C23.8909 35.8605 23.8909 33.7641 25.2885 32.3665C26.6861 30.9689 28.7825 30.9689 30.1801 32.3665L38.2163 40.4027L70.7105 7.90855C72.1081 6.51095 74.2045 6.51095 75.6021 7.90855C76.9997 9.30615 76.9997 11.4025 75.6021 12.8001L40.6621 47.7401C39.9633 48.4389 39.2645 48.7883 38.2163 48.7883Z" fill="var(--fill-0, #F47920)"/>
</g>
</svg>
