<svg preserveAspectRatio="none" width="100%" height="100%" overflow="visible" style="display: block;" viewBox="0 0 76.0025 76.0029" fill="none" xmlns="http://www.w3.org/2000/svg">
<g id="Group 86">
<path id="XMLID_1644_" d="M58.3594 76.0029C53.1208 76.0029 48.8593 71.7414 48.8593 66.5027V30.8556C43.7971 27.6282 40.7163 22.0774 40.7163 16.0001C40.7163 9.34999 44.4024 3.33506 50.3359 0.297732C51.18 -0.131131 52.1843 -0.0958448 52.9905 0.398162C53.7966 0.894882 54.2879 1.76889 54.2879 2.71619V14.4502L58.3594 16.0788L62.4309 14.4502V2.71619C62.4309 1.76889 62.9222 0.894882 63.7283 0.398162C64.5345 -0.0958448 65.5388 -0.131131 66.3829 0.297732C72.3165 3.33777 76.0025 9.34999 76.0025 16.0028C76.0025 22.0774 72.9217 27.6282 67.8595 30.8583V66.5027C67.8595 71.7414 63.5981 76.0029 58.3594 76.0029ZM48.8593 8.32398C47.1303 10.4547 46.145 13.1419 46.145 16.0001C46.145 20.5981 48.6991 24.7646 52.8113 26.8709C53.7179 27.3351 54.2879 28.2688 54.2879 29.2867V66.5027C54.2879 68.7475 56.1147 70.5742 58.3594 70.5742C60.6042 70.5742 62.4309 68.7475 62.4309 66.5027V29.2867C62.4309 28.2688 63.0009 27.3351 63.9075 26.8709C68.0197 24.7646 70.5739 20.6009 70.5739 16.0028C70.5739 13.1446 69.5886 10.4574 67.8595 8.32669V16.2878C67.8595 17.398 67.1837 18.3941 66.1549 18.8094L59.3691 21.5237C58.7204 21.7843 58.0011 21.7843 57.3524 21.5237L50.5666 18.8094C49.5352 18.3941 48.8593 17.398 48.8593 16.2878V8.32398Z" fill="var(--fill-0, #F47920)"/>
<path id="Vector" d="M40.9157 76.0029H35.088C32.2678 76.0029 29.8901 73.8016 29.6757 70.9922L29.3337 66.5543C27.4716 65.9897 25.6693 65.2406 23.9457 64.3177L20.5637 67.2139C18.4221 69.0515 15.1866 68.9239 13.1943 66.9343L9.06855 62.8059C7.07623 60.8135 6.95138 57.5754 8.78626 55.4338L11.6824 52.0544C10.7596 50.3308 10.0104 48.5285 9.44584 46.6665L5.01064 46.3272C2.20131 46.1155 0 43.7377 0 40.9176V35.0872C0 32.267 2.20131 29.8893 5.01335 29.6749L9.44855 29.3356C10.0131 27.4708 10.7623 25.6685 11.6852 23.9476L8.78626 20.5629C6.95138 18.424 7.07623 15.1885 9.07126 13.1908L13.1916 9.06773C15.1866 7.0727 18.4248 6.95056 20.5637 8.78544L23.9457 11.6816C25.6693 10.7588 27.4716 10.0096 29.3337 9.44502L29.6757 5.00711C29.8901 2.20321 32.2678 0.00189785 35.0853 0.00189785H38.0005C39.4988 0.00189785 40.7148 1.2152 40.7148 2.71622C40.7148 4.21724 39.4988 5.43054 38.0005 5.43054H35.0853L34.5967 11.7848C34.5044 12.9682 33.6549 13.9535 32.5013 14.2195C29.8765 14.8248 27.3794 15.859 25.0803 17.3003C24.0787 17.9327 22.7786 17.8377 21.8747 17.0587L17.0296 12.9085L12.9093 17.0343L17.0595 21.8766C17.8331 22.7778 17.9281 24.0779 17.2984 25.0822C15.8598 27.384 14.8229 29.8811 14.2176 32.5032C13.9516 33.6595 12.9636 34.5091 11.7802 34.5986L5.42864 35.0872V40.9176L11.7802 41.4061C12.9636 41.4957 13.9516 42.348 14.2176 43.5016C14.8229 46.1263 15.8571 48.6235 17.2984 50.9226C17.9281 51.9269 17.8304 53.227 17.0595 54.1282L12.9093 58.9705L17.0324 63.0963L21.8747 58.9461C22.7786 58.1698 24.0787 58.0748 25.0803 58.7045C27.3821 60.1431 29.8792 61.18 32.5013 61.7853C33.6576 62.054 34.5072 63.0393 34.5967 64.22L35.0853 70.5742H40.913C41.027 69.0814 42.3271 67.9658 43.8281 68.0771C45.3237 68.1911 46.442 69.4966 46.3253 70.9922C46.1109 73.8016 43.7331 76.0029 40.9157 76.0029Z" fill="var(--fill-0, #F47920)"/>
<path id="Vector_2" d="M18.9974 38.0026C18.9974 28.6815 25.6584 20.8017 34.8357 19.2654C36.3096 19.0021 37.7156 20.0146 37.9599 21.4939C38.2069 22.9732 37.2108 24.3711 35.7314 24.6181C29.1817 25.7175 24.4261 31.347 24.4261 38.0026C24.4261 47.3753 33.7364 53.9115 42.5228 50.8036C43.9288 50.3014 45.4868 51.0397 45.989 52.4539C46.4884 53.8681 45.7501 55.418 44.336 55.9174C31.9775 60.2902 18.9974 51.075 18.9974 38.0026Z" fill="var(--fill-0, #F47920)"/>
</g>
</svg>
